<svg xmlns="http://www.w3.org/2000/svg" viewBox="0 0 80 96">
  <g fill="none" fill-rule="evenodd">
    <ellipse cx="40" cy="88" rx="18" ry="5" fill="#CFE0D7"/>
    <path fill="#1D5A45" d="M25 17l6-7h16l6 7v8H25z"/>
    <path fill="#F3DDC7" stroke="#142322" stroke-width="3" d="M26 18h24v20H26z"/>
    <path stroke="#142322" stroke-linecap="round" stroke-width="3" d="M31 27h4m10 0h-4"/>
    <path fill="#2F8E67" stroke="#142322" stroke-width="3" d="M22 40l9-6h18l9 6v27H22z"/>
    <path stroke="#142322" stroke-linecap="round" stroke-width="3" d="M22 48l-9 9m45-9l9 9"/>
    <path fill="#FFFDF4" stroke="#142322" stroke-width="3" d="M55 47l9-3 4 10-9 3z"/>
    <path stroke="#142322" stroke-width="2.5" d="M59 46l3 9"/>
    <path fill="#24654A" stroke="#142322" stroke-width="3" d="M23 68h12v16H23zm22 0h12v16H45z"/>
    <path fill="#142322" d="M19 84h18v5H19zm24 0h18v5H43z"/>
  </g>
</svg>
