<svg xmlns="http://www.w3.org/2000/svg" viewBox="0 0 80 96">
  <g fill="none" fill-rule="evenodd">
    <ellipse cx="40" cy="88" rx="18" ry="5" fill="#DCCBBC"/>
    <path fill="#704734" d="M26 17l6-6h14l5 6v8H26z"/>
    <path fill="#F3DDC7" stroke="#142322" stroke-width="3" d="M26 18h23v19H26z"/>
    <path stroke="#142322" stroke-linecap="round" stroke-width="3" d="M30 26h4m9 0h-4"/>
    <path stroke="#142322" stroke-width="3" d="M49 25c7 0 10 3 10 9"/>
    <circle cx="60" cy="35" r="4" fill="#91653A" stroke="#142322" stroke-width="3"/>
    <path fill="#C67B43" stroke="#142322" stroke-width="3" d="M23 39l10-6h13l8 6v27H23z"/>
    <path stroke="#142322" stroke-linecap="round" stroke-width="3" d="M24 47l-10 13m39-14l10 10"/>
    <path fill="#FFF4E7" stroke="#142322" stroke-width="3" d="M51 51l11 2-2 10-11-2z"/>
    <path fill="#8E5434" stroke="#142322" stroke-width="3" d="M25 68h10v16H25zm18 0h10v16H43z"/>
    <path fill="#142322" d="M21 84h16v5H21zm41 0H44v5h18z"/>
  </g>
</svg>
